<?xml version="1.0" encoding="utf-8"?>
<!-- Generator: Adobe Illustrator 15.0.0, SVG Export Plug-In . SVG Version: 6.00 Build 0)  -->
<!DOCTYPE svg PUBLIC "-//W3C//DTD SVG 1.1//EN" "http://www.w3.org/Graphics/SVG/1.1/DTD/svg11.dtd">
<svg version="1.1" id="Layer_1" xmlns="http://www.w3.org/2000/svg" xmlns:xlink="http://www.w3.org/1999/xlink" x="0px" y="0px"
	 width="28.35px" height="28.35px" viewBox="0 0 28.35 28.35" enable-background="new 0 0 28.35 28.35" xml:space="preserve">
<g>
	<path fill="#FFFFFF" d="M24.621,27.772l-6.871-6.871c-1.185,0.824-2.445,1.39-3.783,1.698c-1.287,0.309-2.548,0.336-3.783,0.077
		c-1.185-0.205-2.291-0.591-3.319-1.158c-1.081-0.514-2.034-1.208-2.856-2.084c-0.979-0.927-1.751-1.98-2.316-3.165
		c-0.567-1.235-0.927-2.521-1.081-3.86c-0.154-1.39,0.051-2.83,0.617-4.324c0.566-1.439,1.492-2.805,2.78-4.092
		C5.242,2.708,6.605,1.807,8.1,1.292c1.492-0.565,2.934-0.797,4.323-0.694c1.338,0.154,2.625,0.515,3.86,1.081
		c1.234,0.566,2.315,1.312,3.242,2.238c0.822,0.824,1.492,1.776,2.007,2.857c0.566,1.08,0.952,2.213,1.158,3.396
		c0.257,1.235,0.231,2.497-0.077,3.783c-0.309,1.338-0.876,2.599-1.698,3.783l6.871,6.871L24.621,27.772z M11.728,18.508
		c1.854,0,3.448-0.668,4.787-2.007c1.338-1.338,2.007-2.933,2.007-4.787c0-1.853-0.669-3.447-2.007-4.786
		C15.176,5.59,13.581,4.92,11.728,4.92c-1.853,0-3.448,0.67-4.786,2.008c-1.339,1.339-2.008,2.934-2.008,4.786
		c0,1.854,0.669,3.449,2.008,4.787C8.279,17.84,9.875,18.508,11.728,18.508z"/>
</g>
</svg>
